<?xml version="1.0" encoding="utf-8"?>
<!-- Generator: Adobe Illustrator 25.3.1, SVG Export Plug-In . SVG Version: 6.00 Build 0)  -->
<svg fill="#ededed" version="1.1" id="Layer_1" xmlns="http://www.w3.org/2000/svg" xmlns:xlink="http://www.w3.org/1999/xlink" x="0px" y="0px"
	 viewBox="0 0 12.23 12.23" style="enable-background:new 0 0 12.23 12.23;" xml:space="preserve">
<g>
	<path d="M8.3,0.07H3.92C3.41,0.07,2.99,0.49,2.99,1v10.23c0,0.51,0.42,0.93,0.93,0.93h4.39c0.25,0,0.49-0.1,0.66-0.28
		s0.26-0.41,0.26-0.65V1C9.23,0.49,8.81,0.07,8.3,0.07z M8.73,11.24c0,0.11-0.04,0.22-0.12,0.29c-0.08,0.08-0.19,0.13-0.3,0.13H3.92
		c-0.24,0-0.43-0.19-0.43-0.43V1c0-0.24,0.19-0.43,0.43-0.43H8.3c0.24,0,0.43,0.19,0.43,0.43V11.24z"/>
	<path d="M6.57,0.99H5.64c-0.14,0-0.25,0.11-0.25,0.25S5.5,1.49,5.64,1.49h0.93c0.14,0,0.25-0.11,0.25-0.25S6.71,0.99,6.57,0.99z"/>
	<path d="M6.57,10.74H5.64c-0.14,0-0.25,0.11-0.25,0.25s0.11,0.25,0.25,0.25h0.93c0.14,0,0.25-0.11,0.25-0.25S6.71,10.74,6.57,10.74
		z"/>
</g>
</svg>
